<mxfile host="app.diagrams.net" modified="2024-05-12T16:17:18.858Z" agent="Mozilla/5.0 (Windows NT 10.0; Win64; x64) AppleWebKit/537.36 (KHTML, like Gecko) Chrome/124.0.0.0 Safari/537.36 Edg/124.0.0.0" etag="cUAdHAarvECL4wOjWbq8" version="24.4.0" type="device">
  <diagram name="Page-1" id="bHXLbWb4hZZNj8RFdQcV">
    <mxGraphModel dx="1282" dy="569" grid="1" gridSize="10" guides="1" tooltips="1" connect="1" arrows="1" fold="1" page="1" pageScale="1" pageWidth="850" pageHeight="1100" math="0" shadow="0">
      <root>
        <mxCell id="0" />
        <mxCell id="1" parent="0" />
        <mxCell id="HlBxM6AjfX2AsBV-wYqG-16" style="edgeStyle=orthogonalEdgeStyle;rounded=0;orthogonalLoop=1;jettySize=auto;html=1;exitX=0;exitY=0.25;exitDx=0;exitDy=0;entryX=1;entryY=0;entryDx=0;entryDy=0;" parent="1" source="HlBxM6AjfX2AsBV-wYqG-5" target="HlBxM6AjfX2AsBV-wYqG-6" edge="1">
          <mxGeometry relative="1" as="geometry" />
        </mxCell>
        <mxCell id="HlBxM6AjfX2AsBV-wYqG-18" style="edgeStyle=orthogonalEdgeStyle;rounded=0;orthogonalLoop=1;jettySize=auto;html=1;exitX=0;exitY=1;exitDx=0;exitDy=0;entryX=1;entryY=0.5;entryDx=0;entryDy=0;" parent="1" source="HlBxM6AjfX2AsBV-wYqG-5" target="HlBxM6AjfX2AsBV-wYqG-11" edge="1">
          <mxGeometry relative="1" as="geometry" />
        </mxCell>
        <mxCell id="HlBxM6AjfX2AsBV-wYqG-19" style="edgeStyle=orthogonalEdgeStyle;rounded=0;orthogonalLoop=1;jettySize=auto;html=1;exitX=0.25;exitY=1;exitDx=0;exitDy=0;entryX=1;entryY=0.5;entryDx=0;entryDy=0;" parent="1" source="HlBxM6AjfX2AsBV-wYqG-5" target="HlBxM6AjfX2AsBV-wYqG-10" edge="1">
          <mxGeometry relative="1" as="geometry" />
        </mxCell>
        <mxCell id="HlBxM6AjfX2AsBV-wYqG-20" style="edgeStyle=orthogonalEdgeStyle;rounded=0;orthogonalLoop=1;jettySize=auto;html=1;exitX=0.5;exitY=1;exitDx=0;exitDy=0;entryX=1;entryY=0.5;entryDx=0;entryDy=0;" parent="1" source="HlBxM6AjfX2AsBV-wYqG-5" target="HlBxM6AjfX2AsBV-wYqG-9" edge="1">
          <mxGeometry relative="1" as="geometry" />
        </mxCell>
        <mxCell id="HlBxM6AjfX2AsBV-wYqG-21" style="edgeStyle=orthogonalEdgeStyle;rounded=0;orthogonalLoop=1;jettySize=auto;html=1;exitX=0.75;exitY=1;exitDx=0;exitDy=0;entryX=1;entryY=0.5;entryDx=0;entryDy=0;" parent="1" source="HlBxM6AjfX2AsBV-wYqG-5" target="HlBxM6AjfX2AsBV-wYqG-8" edge="1">
          <mxGeometry relative="1" as="geometry" />
        </mxCell>
        <mxCell id="ePJnPtknFx4bKDEtzAIc-3" style="edgeStyle=orthogonalEdgeStyle;rounded=0;orthogonalLoop=1;jettySize=auto;html=1;exitX=1;exitY=0;exitDx=0;exitDy=0;entryX=0;entryY=0.5;entryDx=0;entryDy=0;" edge="1" parent="1" source="HlBxM6AjfX2AsBV-wYqG-5" target="ePJnPtknFx4bKDEtzAIc-1">
          <mxGeometry relative="1" as="geometry" />
        </mxCell>
        <mxCell id="ePJnPtknFx4bKDEtzAIc-11" style="edgeStyle=orthogonalEdgeStyle;rounded=0;orthogonalLoop=1;jettySize=auto;html=1;exitX=1;exitY=0.5;exitDx=0;exitDy=0;entryX=0.5;entryY=0;entryDx=0;entryDy=0;" edge="1" parent="1" source="HlBxM6AjfX2AsBV-wYqG-5" target="ePJnPtknFx4bKDEtzAIc-10">
          <mxGeometry relative="1" as="geometry" />
        </mxCell>
        <mxCell id="ePJnPtknFx4bKDEtzAIc-18" style="edgeStyle=orthogonalEdgeStyle;rounded=0;orthogonalLoop=1;jettySize=auto;html=1;exitX=1;exitY=0.75;exitDx=0;exitDy=0;" edge="1" parent="1" source="HlBxM6AjfX2AsBV-wYqG-5" target="ePJnPtknFx4bKDEtzAIc-16">
          <mxGeometry relative="1" as="geometry">
            <Array as="points">
              <mxPoint x="390" y="113" />
              <mxPoint x="390" y="330" />
              <mxPoint x="210" y="330" />
            </Array>
          </mxGeometry>
        </mxCell>
        <mxCell id="ePJnPtknFx4bKDEtzAIc-29" style="edgeStyle=orthogonalEdgeStyle;rounded=0;orthogonalLoop=1;jettySize=auto;html=1;exitX=1;exitY=0.75;exitDx=0;exitDy=0;entryX=0.5;entryY=0;entryDx=0;entryDy=0;" edge="1" parent="1" source="HlBxM6AjfX2AsBV-wYqG-5" target="ePJnPtknFx4bKDEtzAIc-27">
          <mxGeometry relative="1" as="geometry" />
        </mxCell>
        <mxCell id="ePJnPtknFx4bKDEtzAIc-45" style="edgeStyle=orthogonalEdgeStyle;rounded=0;orthogonalLoop=1;jettySize=auto;html=1;exitX=1;exitY=0.75;exitDx=0;exitDy=0;" edge="1" parent="1" source="HlBxM6AjfX2AsBV-wYqG-5" target="ePJnPtknFx4bKDEtzAIc-43">
          <mxGeometry relative="1" as="geometry">
            <Array as="points">
              <mxPoint x="390" y="113" />
              <mxPoint x="390" y="1510" />
            </Array>
          </mxGeometry>
        </mxCell>
        <mxCell id="ePJnPtknFx4bKDEtzAIc-49" style="edgeStyle=orthogonalEdgeStyle;rounded=0;orthogonalLoop=1;jettySize=auto;html=1;exitX=0.25;exitY=0;exitDx=0;exitDy=0;entryX=0;entryY=0.5;entryDx=0;entryDy=0;" edge="1" parent="1" source="HlBxM6AjfX2AsBV-wYqG-5" target="ePJnPtknFx4bKDEtzAIc-48">
          <mxGeometry relative="1" as="geometry">
            <Array as="points">
              <mxPoint x="295" y="55" />
              <mxPoint x="10" y="55" />
              <mxPoint x="10" y="1210" />
            </Array>
          </mxGeometry>
        </mxCell>
        <mxCell id="HlBxM6AjfX2AsBV-wYqG-5" value="USER" style="html=1;dashed=0;whiteSpace=wrap;" parent="1" vertex="1">
          <mxGeometry x="270" y="75" width="100" height="50" as="geometry" />
        </mxCell>
        <mxCell id="HlBxM6AjfX2AsBV-wYqG-6" value="&lt;u&gt;UserID&lt;/u&gt;" style="ellipse;whiteSpace=wrap;html=1;align=center;" parent="1" vertex="1">
          <mxGeometry x="30" y="80" width="100" height="40" as="geometry" />
        </mxCell>
        <mxCell id="HlBxM6AjfX2AsBV-wYqG-7" value="Phone NO." style="ellipse;whiteSpace=wrap;html=1;align=center;" parent="1" vertex="1">
          <mxGeometry x="30" y="280" width="100" height="40" as="geometry" />
        </mxCell>
        <mxCell id="HlBxM6AjfX2AsBV-wYqG-8" value="Email" style="ellipse;whiteSpace=wrap;html=1;align=center;" parent="1" vertex="1">
          <mxGeometry x="30" y="240" width="100" height="40" as="geometry" />
        </mxCell>
        <mxCell id="HlBxM6AjfX2AsBV-wYqG-9" value="FullName" style="ellipse;whiteSpace=wrap;html=1;align=center;" parent="1" vertex="1">
          <mxGeometry x="30" y="200" width="100" height="40" as="geometry" />
        </mxCell>
        <mxCell id="HlBxM6AjfX2AsBV-wYqG-10" value="Role" style="ellipse;whiteSpace=wrap;html=1;align=center;" parent="1" vertex="1">
          <mxGeometry x="30" y="160" width="100" height="40" as="geometry" />
        </mxCell>
        <mxCell id="HlBxM6AjfX2AsBV-wYqG-11" value="Password" style="ellipse;whiteSpace=wrap;html=1;align=center;" parent="1" vertex="1">
          <mxGeometry x="30" y="120" width="100" height="40" as="geometry" />
        </mxCell>
        <mxCell id="HlBxM6AjfX2AsBV-wYqG-22" style="edgeStyle=orthogonalEdgeStyle;rounded=0;orthogonalLoop=1;jettySize=auto;html=1;exitX=1;exitY=1;exitDx=0;exitDy=0;entryX=1.01;entryY=0.675;entryDx=0;entryDy=0;entryPerimeter=0;" parent="1" source="HlBxM6AjfX2AsBV-wYqG-5" target="HlBxM6AjfX2AsBV-wYqG-7" edge="1">
          <mxGeometry relative="1" as="geometry" />
        </mxCell>
        <mxCell id="HlBxM6AjfX2AsBV-wYqG-30" style="edgeStyle=orthogonalEdgeStyle;rounded=0;orthogonalLoop=1;jettySize=auto;html=1;exitX=1;exitY=0;exitDx=0;exitDy=0;entryX=0;entryY=0.5;entryDx=0;entryDy=0;" parent="1" source="HlBxM6AjfX2AsBV-wYqG-23" target="HlBxM6AjfX2AsBV-wYqG-29" edge="1">
          <mxGeometry relative="1" as="geometry" />
        </mxCell>
        <mxCell id="HlBxM6AjfX2AsBV-wYqG-33" style="edgeStyle=orthogonalEdgeStyle;rounded=0;orthogonalLoop=1;jettySize=auto;html=1;exitX=1;exitY=0.25;exitDx=0;exitDy=0;entryX=0;entryY=0.5;entryDx=0;entryDy=0;" parent="1" source="HlBxM6AjfX2AsBV-wYqG-23" target="HlBxM6AjfX2AsBV-wYqG-28" edge="1">
          <mxGeometry relative="1" as="geometry" />
        </mxCell>
        <mxCell id="HlBxM6AjfX2AsBV-wYqG-34" style="edgeStyle=orthogonalEdgeStyle;rounded=0;orthogonalLoop=1;jettySize=auto;html=1;exitX=1;exitY=0.5;exitDx=0;exitDy=0;entryX=0;entryY=0.5;entryDx=0;entryDy=0;" parent="1" source="HlBxM6AjfX2AsBV-wYqG-23" edge="1">
          <mxGeometry relative="1" as="geometry">
            <mxPoint x="680" y="180" as="targetPoint" />
          </mxGeometry>
        </mxCell>
        <mxCell id="HlBxM6AjfX2AsBV-wYqG-47" style="edgeStyle=orthogonalEdgeStyle;rounded=0;orthogonalLoop=1;jettySize=auto;html=1;exitX=0.5;exitY=1;exitDx=0;exitDy=0;entryX=0;entryY=0.5;entryDx=0;entryDy=0;" parent="1" source="HlBxM6AjfX2AsBV-wYqG-23" target="HlBxM6AjfX2AsBV-wYqG-45" edge="1">
          <mxGeometry relative="1" as="geometry" />
        </mxCell>
        <mxCell id="HlBxM6AjfX2AsBV-wYqG-23" value="Family Members" style="html=1;dashed=0;whiteSpace=wrap;" parent="1" vertex="1">
          <mxGeometry x="470" y="140" width="100" height="50" as="geometry" />
        </mxCell>
        <mxCell id="HlBxM6AjfX2AsBV-wYqG-24" value="&lt;u&gt;Proposal ID&lt;/u&gt;" style="ellipse;whiteSpace=wrap;html=1;align=center;" parent="1" vertex="1">
          <mxGeometry x="680" y="420" width="100" height="40" as="geometry" />
        </mxCell>
        <mxCell id="HlBxM6AjfX2AsBV-wYqG-28" value="UserID" style="ellipse;whiteSpace=wrap;html=1;align=center;" parent="1" vertex="1">
          <mxGeometry x="680" y="120" width="100" height="40" as="geometry" />
        </mxCell>
        <mxCell id="HlBxM6AjfX2AsBV-wYqG-29" value="&lt;u&gt;FamilyID&lt;/u&gt;" style="ellipse;whiteSpace=wrap;html=1;align=center;" parent="1" vertex="1">
          <mxGeometry x="680" y="80" width="100" height="40" as="geometry" />
        </mxCell>
        <mxCell id="HlBxM6AjfX2AsBV-wYqG-38" value="Status" style="ellipse;whiteSpace=wrap;html=1;align=center;" parent="1" vertex="1">
          <mxGeometry x="690" y="590" width="100" height="40" as="geometry" />
        </mxCell>
        <mxCell id="HlBxM6AjfX2AsBV-wYqG-39" value="Special Requirements" style="ellipse;whiteSpace=wrap;html=1;align=center;" parent="1" vertex="1">
          <mxGeometry x="690" y="550" width="100" height="40" as="geometry" />
        </mxCell>
        <mxCell id="HlBxM6AjfX2AsBV-wYqG-40" value="Duration" style="ellipse;whiteSpace=wrap;html=1;align=center;" parent="1" vertex="1">
          <mxGeometry x="690" y="510" width="100" height="40" as="geometry" />
        </mxCell>
        <mxCell id="HlBxM6AjfX2AsBV-wYqG-41" value="Performance Type" style="ellipse;whiteSpace=wrap;html=1;align=center;" parent="1" vertex="1">
          <mxGeometry x="690" y="470" width="100" height="40" as="geometry" />
        </mxCell>
        <mxCell id="HlBxM6AjfX2AsBV-wYqG-48" style="edgeStyle=orthogonalEdgeStyle;rounded=0;orthogonalLoop=1;jettySize=auto;html=1;exitX=0.5;exitY=0;exitDx=0;exitDy=0;entryX=0;entryY=0.5;entryDx=0;entryDy=0;" parent="1" source="HlBxM6AjfX2AsBV-wYqG-43" target="HlBxM6AjfX2AsBV-wYqG-24" edge="1">
          <mxGeometry relative="1" as="geometry" />
        </mxCell>
        <mxCell id="HlBxM6AjfX2AsBV-wYqG-50" style="edgeStyle=orthogonalEdgeStyle;rounded=0;orthogonalLoop=1;jettySize=auto;html=1;exitX=1;exitY=0.25;exitDx=0;exitDy=0;entryX=0;entryY=0.5;entryDx=0;entryDy=0;" parent="1" source="HlBxM6AjfX2AsBV-wYqG-43" target="HlBxM6AjfX2AsBV-wYqG-41" edge="1">
          <mxGeometry relative="1" as="geometry" />
        </mxCell>
        <mxCell id="HlBxM6AjfX2AsBV-wYqG-52" style="edgeStyle=orthogonalEdgeStyle;rounded=0;orthogonalLoop=1;jettySize=auto;html=1;exitX=1;exitY=0.75;exitDx=0;exitDy=0;entryX=0;entryY=0.5;entryDx=0;entryDy=0;" parent="1" source="HlBxM6AjfX2AsBV-wYqG-43" target="HlBxM6AjfX2AsBV-wYqG-40" edge="1">
          <mxGeometry relative="1" as="geometry" />
        </mxCell>
        <mxCell id="HlBxM6AjfX2AsBV-wYqG-53" style="edgeStyle=orthogonalEdgeStyle;rounded=0;orthogonalLoop=1;jettySize=auto;html=1;exitX=1;exitY=1;exitDx=0;exitDy=0;entryX=0;entryY=0.5;entryDx=0;entryDy=0;" parent="1" source="HlBxM6AjfX2AsBV-wYqG-43" target="HlBxM6AjfX2AsBV-wYqG-39" edge="1">
          <mxGeometry relative="1" as="geometry" />
        </mxCell>
        <mxCell id="HlBxM6AjfX2AsBV-wYqG-54" style="edgeStyle=orthogonalEdgeStyle;rounded=0;orthogonalLoop=1;jettySize=auto;html=1;exitX=0.75;exitY=1;exitDx=0;exitDy=0;entryX=0;entryY=0.5;entryDx=0;entryDy=0;" parent="1" source="HlBxM6AjfX2AsBV-wYqG-43" target="HlBxM6AjfX2AsBV-wYqG-38" edge="1">
          <mxGeometry relative="1" as="geometry" />
        </mxCell>
        <mxCell id="HlBxM6AjfX2AsBV-wYqG-43" value="PerformanceProposals" style="html=1;dashed=0;whiteSpace=wrap;" parent="1" vertex="1">
          <mxGeometry x="425" y="457.5" width="130" height="55" as="geometry" />
        </mxCell>
        <mxCell id="HlBxM6AjfX2AsBV-wYqG-44" value="Names" style="ellipse;shape=doubleEllipse;margin=3;whiteSpace=wrap;html=1;align=center;" parent="1" vertex="1">
          <mxGeometry x="680" y="160" width="100" height="40" as="geometry" />
        </mxCell>
        <mxCell id="HlBxM6AjfX2AsBV-wYqG-45" value="No. of members" style="ellipse;whiteSpace=wrap;html=1;align=center;" parent="1" vertex="1">
          <mxGeometry x="680" y="210" width="100" height="40" as="geometry" />
        </mxCell>
        <mxCell id="HlBxM6AjfX2AsBV-wYqG-62" style="edgeStyle=orthogonalEdgeStyle;rounded=0;orthogonalLoop=1;jettySize=auto;html=1;exitX=0.75;exitY=0;exitDx=0;exitDy=0;entryX=0;entryY=0.5;entryDx=0;entryDy=0;" parent="1" source="HlBxM6AjfX2AsBV-wYqG-56" target="HlBxM6AjfX2AsBV-wYqG-59" edge="1">
          <mxGeometry relative="1" as="geometry" />
        </mxCell>
        <mxCell id="HlBxM6AjfX2AsBV-wYqG-63" style="edgeStyle=orthogonalEdgeStyle;rounded=0;orthogonalLoop=1;jettySize=auto;html=1;exitX=1;exitY=0.25;exitDx=0;exitDy=0;entryX=0;entryY=0.5;entryDx=0;entryDy=0;" parent="1" source="HlBxM6AjfX2AsBV-wYqG-56" target="HlBxM6AjfX2AsBV-wYqG-58" edge="1">
          <mxGeometry relative="1" as="geometry" />
        </mxCell>
        <mxCell id="HlBxM6AjfX2AsBV-wYqG-64" style="edgeStyle=orthogonalEdgeStyle;rounded=0;orthogonalLoop=1;jettySize=auto;html=1;exitX=1;exitY=1;exitDx=0;exitDy=0;entryX=0;entryY=0.5;entryDx=0;entryDy=0;" parent="1" source="HlBxM6AjfX2AsBV-wYqG-56" target="HlBxM6AjfX2AsBV-wYqG-57" edge="1">
          <mxGeometry relative="1" as="geometry" />
        </mxCell>
        <mxCell id="HlBxM6AjfX2AsBV-wYqG-65" style="edgeStyle=orthogonalEdgeStyle;rounded=0;orthogonalLoop=1;jettySize=auto;html=1;exitX=0.75;exitY=1;exitDx=0;exitDy=0;entryX=0;entryY=0.5;entryDx=0;entryDy=0;" parent="1" source="HlBxM6AjfX2AsBV-wYqG-56" target="HlBxM6AjfX2AsBV-wYqG-60" edge="1">
          <mxGeometry relative="1" as="geometry" />
        </mxCell>
        <mxCell id="HlBxM6AjfX2AsBV-wYqG-66" style="edgeStyle=orthogonalEdgeStyle;rounded=0;orthogonalLoop=1;jettySize=auto;html=1;exitX=0.5;exitY=1;exitDx=0;exitDy=0;entryX=0;entryY=0.5;entryDx=0;entryDy=0;" parent="1" source="HlBxM6AjfX2AsBV-wYqG-56" target="HlBxM6AjfX2AsBV-wYqG-61" edge="1">
          <mxGeometry relative="1" as="geometry" />
        </mxCell>
        <mxCell id="HlBxM6AjfX2AsBV-wYqG-56" value="Menu Items" style="html=1;dashed=0;whiteSpace=wrap;" parent="1" vertex="1">
          <mxGeometry x="480" y="790" width="100" height="50" as="geometry" />
        </mxCell>
        <mxCell id="HlBxM6AjfX2AsBV-wYqG-57" value="Votes" style="ellipse;whiteSpace=wrap;html=1;align=center;" parent="1" vertex="1">
          <mxGeometry x="680" y="850" width="100" height="40" as="geometry" />
        </mxCell>
        <mxCell id="HlBxM6AjfX2AsBV-wYqG-58" value="ItemName" style="ellipse;whiteSpace=wrap;html=1;align=center;" parent="1" vertex="1">
          <mxGeometry x="680" y="810" width="100" height="40" as="geometry" />
        </mxCell>
        <mxCell id="HlBxM6AjfX2AsBV-wYqG-59" value="&lt;u&gt;Menu ID&lt;/u&gt;" style="ellipse;whiteSpace=wrap;html=1;align=center;" parent="1" vertex="1">
          <mxGeometry x="680" y="770" width="100" height="40" as="geometry" />
        </mxCell>
        <mxCell id="HlBxM6AjfX2AsBV-wYqG-60" value="Price" style="ellipse;whiteSpace=wrap;html=1;align=center;" parent="1" vertex="1">
          <mxGeometry x="680" y="890" width="100" height="40" as="geometry" />
        </mxCell>
        <mxCell id="HlBxM6AjfX2AsBV-wYqG-61" value="Quantity" style="ellipse;whiteSpace=wrap;html=1;align=center;" parent="1" vertex="1">
          <mxGeometry x="680" y="930" width="100" height="40" as="geometry" />
        </mxCell>
        <mxCell id="HlBxM6AjfX2AsBV-wYqG-73" style="edgeStyle=orthogonalEdgeStyle;rounded=0;orthogonalLoop=1;jettySize=auto;html=1;exitX=0;exitY=0;exitDx=0;exitDy=0;entryX=1;entryY=0.5;entryDx=0;entryDy=0;" parent="1" source="HlBxM6AjfX2AsBV-wYqG-68" target="HlBxM6AjfX2AsBV-wYqG-72" edge="1">
          <mxGeometry relative="1" as="geometry" />
        </mxCell>
        <mxCell id="HlBxM6AjfX2AsBV-wYqG-75" style="edgeStyle=orthogonalEdgeStyle;rounded=0;orthogonalLoop=1;jettySize=auto;html=1;exitX=0.25;exitY=1;exitDx=0;exitDy=0;entryX=1;entryY=0.5;entryDx=0;entryDy=0;" parent="1" source="HlBxM6AjfX2AsBV-wYqG-68" target="HlBxM6AjfX2AsBV-wYqG-70" edge="1">
          <mxGeometry relative="1" as="geometry" />
        </mxCell>
        <mxCell id="HlBxM6AjfX2AsBV-wYqG-68" value="Tasks" style="rounded=1;arcSize=10;whiteSpace=wrap;html=1;align=center;" parent="1" vertex="1">
          <mxGeometry x="240" y="865" width="100" height="40" as="geometry" />
        </mxCell>
        <mxCell id="HlBxM6AjfX2AsBV-wYqG-70" value="Status" style="ellipse;whiteSpace=wrap;html=1;align=center;" parent="1" vertex="1">
          <mxGeometry x="20" y="935" width="100" height="40" as="geometry" />
        </mxCell>
        <mxCell id="HlBxM6AjfX2AsBV-wYqG-71" value="Task Description" style="ellipse;whiteSpace=wrap;html=1;align=center;" parent="1" vertex="1">
          <mxGeometry x="20" y="895" width="100" height="40" as="geometry" />
        </mxCell>
        <mxCell id="HlBxM6AjfX2AsBV-wYqG-72" value="&lt;u&gt;TasksID&lt;/u&gt;" style="ellipse;whiteSpace=wrap;html=1;align=center;" parent="1" vertex="1">
          <mxGeometry x="20" y="855" width="100" height="40" as="geometry" />
        </mxCell>
        <mxCell id="HlBxM6AjfX2AsBV-wYqG-74" style="edgeStyle=orthogonalEdgeStyle;rounded=0;orthogonalLoop=1;jettySize=auto;html=1;exitX=0;exitY=0.5;exitDx=0;exitDy=0;entryX=1.03;entryY=0.675;entryDx=0;entryDy=0;entryPerimeter=0;" parent="1" source="HlBxM6AjfX2AsBV-wYqG-68" target="HlBxM6AjfX2AsBV-wYqG-71" edge="1">
          <mxGeometry relative="1" as="geometry" />
        </mxCell>
        <mxCell id="HlBxM6AjfX2AsBV-wYqG-82" style="edgeStyle=orthogonalEdgeStyle;rounded=0;orthogonalLoop=1;jettySize=auto;html=1;exitX=0;exitY=0;exitDx=0;exitDy=0;entryX=1;entryY=0.5;entryDx=0;entryDy=0;" parent="1" source="HlBxM6AjfX2AsBV-wYqG-76" target="HlBxM6AjfX2AsBV-wYqG-81" edge="1">
          <mxGeometry relative="1" as="geometry" />
        </mxCell>
        <mxCell id="HlBxM6AjfX2AsBV-wYqG-83" style="edgeStyle=orthogonalEdgeStyle;rounded=0;orthogonalLoop=1;jettySize=auto;html=1;exitX=0;exitY=0.25;exitDx=0;exitDy=0;entryX=1;entryY=0.5;entryDx=0;entryDy=0;" parent="1" source="HlBxM6AjfX2AsBV-wYqG-76" target="HlBxM6AjfX2AsBV-wYqG-80" edge="1">
          <mxGeometry relative="1" as="geometry" />
        </mxCell>
        <mxCell id="HlBxM6AjfX2AsBV-wYqG-85" style="edgeStyle=orthogonalEdgeStyle;rounded=0;orthogonalLoop=1;jettySize=auto;html=1;exitX=0.25;exitY=1;exitDx=0;exitDy=0;entryX=1;entryY=0.5;entryDx=0;entryDy=0;" parent="1" source="HlBxM6AjfX2AsBV-wYqG-76" target="HlBxM6AjfX2AsBV-wYqG-78" edge="1">
          <mxGeometry relative="1" as="geometry" />
        </mxCell>
        <mxCell id="HlBxM6AjfX2AsBV-wYqG-76" value="Attendance" style="rounded=1;arcSize=10;whiteSpace=wrap;html=1;align=center;" parent="1" vertex="1">
          <mxGeometry x="240" y="1330" width="100" height="40" as="geometry" />
        </mxCell>
        <mxCell id="HlBxM6AjfX2AsBV-wYqG-78" value="Status" style="ellipse;whiteSpace=wrap;html=1;align=center;" parent="1" vertex="1">
          <mxGeometry x="20" y="1390" width="100" height="40" as="geometry" />
        </mxCell>
        <mxCell id="HlBxM6AjfX2AsBV-wYqG-79" value="Attendance Date" style="ellipse;whiteSpace=wrap;html=1;align=center;" parent="1" vertex="1">
          <mxGeometry x="20" y="1350" width="100" height="40" as="geometry" />
        </mxCell>
        <mxCell id="HlBxM6AjfX2AsBV-wYqG-80" value="UserID" style="ellipse;whiteSpace=wrap;html=1;align=center;" parent="1" vertex="1">
          <mxGeometry x="20" y="1310" width="100" height="40" as="geometry" />
        </mxCell>
        <mxCell id="HlBxM6AjfX2AsBV-wYqG-81" value="&lt;u&gt;AttendanceID&lt;/u&gt;" style="ellipse;whiteSpace=wrap;html=1;align=center;" parent="1" vertex="1">
          <mxGeometry x="20" y="1270" width="100" height="40" as="geometry" />
        </mxCell>
        <mxCell id="HlBxM6AjfX2AsBV-wYqG-84" style="edgeStyle=orthogonalEdgeStyle;rounded=0;orthogonalLoop=1;jettySize=auto;html=1;exitX=0;exitY=0.75;exitDx=0;exitDy=0;entryX=1;entryY=0.675;entryDx=0;entryDy=0;entryPerimeter=0;" parent="1" source="HlBxM6AjfX2AsBV-wYqG-76" target="HlBxM6AjfX2AsBV-wYqG-79" edge="1">
          <mxGeometry relative="1" as="geometry" />
        </mxCell>
        <mxCell id="HlBxM6AjfX2AsBV-wYqG-92" style="edgeStyle=orthogonalEdgeStyle;rounded=0;orthogonalLoop=1;jettySize=auto;html=1;exitX=0;exitY=0;exitDx=0;exitDy=0;entryX=1;entryY=0.5;entryDx=0;entryDy=0;" parent="1" source="HlBxM6AjfX2AsBV-wYqG-86" target="HlBxM6AjfX2AsBV-wYqG-89" edge="1">
          <mxGeometry relative="1" as="geometry" />
        </mxCell>
        <mxCell id="HlBxM6AjfX2AsBV-wYqG-93" style="edgeStyle=orthogonalEdgeStyle;rounded=0;orthogonalLoop=1;jettySize=auto;html=1;exitX=0;exitY=0.5;exitDx=0;exitDy=0;" parent="1" source="HlBxM6AjfX2AsBV-wYqG-86" target="HlBxM6AjfX2AsBV-wYqG-88" edge="1">
          <mxGeometry relative="1" as="geometry" />
        </mxCell>
        <mxCell id="HlBxM6AjfX2AsBV-wYqG-86" value="Budget" style="rounded=1;arcSize=10;whiteSpace=wrap;html=1;align=center;" parent="1" vertex="1">
          <mxGeometry x="180" y="1660" width="100" height="40" as="geometry" />
        </mxCell>
        <mxCell id="HlBxM6AjfX2AsBV-wYqG-88" value="max categoryBudget" style="ellipse;whiteSpace=wrap;html=1;align=center;" parent="1" vertex="1">
          <mxGeometry x="20" y="1680" width="100" height="40" as="geometry" />
        </mxCell>
        <mxCell id="HlBxM6AjfX2AsBV-wYqG-89" value="Amount" style="ellipse;whiteSpace=wrap;html=1;align=center;" parent="1" vertex="1">
          <mxGeometry x="10" y="1640" width="100" height="40" as="geometry" />
        </mxCell>
        <mxCell id="HlBxM6AjfX2AsBV-wYqG-90" value="Category" style="ellipse;whiteSpace=wrap;html=1;align=center;" parent="1" vertex="1">
          <mxGeometry x="10" y="1600" width="100" height="40" as="geometry" />
        </mxCell>
        <mxCell id="HlBxM6AjfX2AsBV-wYqG-91" style="edgeStyle=orthogonalEdgeStyle;rounded=0;orthogonalLoop=1;jettySize=auto;html=1;exitX=0.25;exitY=0;exitDx=0;exitDy=0;entryX=0.99;entryY=0.175;entryDx=0;entryDy=0;entryPerimeter=0;" parent="1" source="HlBxM6AjfX2AsBV-wYqG-86" target="HlBxM6AjfX2AsBV-wYqG-90" edge="1">
          <mxGeometry relative="1" as="geometry" />
        </mxCell>
        <mxCell id="lDs5BPiXP0umJqBsJiqN-5" style="edgeStyle=orthogonalEdgeStyle;rounded=0;orthogonalLoop=1;jettySize=auto;html=1;exitX=1;exitY=0;exitDx=0;exitDy=0;entryX=0;entryY=0.5;entryDx=0;entryDy=0;" parent="1" source="lDs5BPiXP0umJqBsJiqN-2" target="lDs5BPiXP0umJqBsJiqN-3" edge="1">
          <mxGeometry relative="1" as="geometry" />
        </mxCell>
        <mxCell id="lDs5BPiXP0umJqBsJiqN-6" style="edgeStyle=orthogonalEdgeStyle;rounded=0;orthogonalLoop=1;jettySize=auto;html=1;exitX=1;exitY=1;exitDx=0;exitDy=0;entryX=0;entryY=0.5;entryDx=0;entryDy=0;" parent="1" source="lDs5BPiXP0umJqBsJiqN-2" target="lDs5BPiXP0umJqBsJiqN-4" edge="1">
          <mxGeometry relative="1" as="geometry" />
        </mxCell>
        <mxCell id="ePJnPtknFx4bKDEtzAIc-35" style="edgeStyle=orthogonalEdgeStyle;rounded=0;orthogonalLoop=1;jettySize=auto;html=1;exitX=0.25;exitY=0;exitDx=0;exitDy=0;entryX=0.5;entryY=1;entryDx=0;entryDy=0;" edge="1" parent="1" source="lDs5BPiXP0umJqBsJiqN-2" target="ePJnPtknFx4bKDEtzAIc-34">
          <mxGeometry relative="1" as="geometry" />
        </mxCell>
        <mxCell id="lDs5BPiXP0umJqBsJiqN-2" value="Menu_suggest" style="rounded=1;arcSize=10;whiteSpace=wrap;html=1;align=center;" parent="1" vertex="1">
          <mxGeometry x="620" y="1100" width="100" height="40" as="geometry" />
        </mxCell>
        <mxCell id="lDs5BPiXP0umJqBsJiqN-3" value="userid" style="ellipse;whiteSpace=wrap;html=1;align=center;" parent="1" vertex="1">
          <mxGeometry x="740" y="1070" width="100" height="40" as="geometry" />
        </mxCell>
        <mxCell id="lDs5BPiXP0umJqBsJiqN-4" value="MenuID" style="ellipse;whiteSpace=wrap;html=1;align=center;" parent="1" vertex="1">
          <mxGeometry x="740" y="1120" width="100" height="40" as="geometry" />
        </mxCell>
        <mxCell id="lDs5BPiXP0umJqBsJiqN-15" style="edgeStyle=orthogonalEdgeStyle;rounded=0;orthogonalLoop=1;jettySize=auto;html=1;exitX=0;exitY=1;exitDx=0;exitDy=0;entryX=1;entryY=0.5;entryDx=0;entryDy=0;" parent="1" source="lDs5BPiXP0umJqBsJiqN-12" target="lDs5BPiXP0umJqBsJiqN-14" edge="1">
          <mxGeometry relative="1" as="geometry" />
        </mxCell>
        <mxCell id="lDs5BPiXP0umJqBsJiqN-16" style="edgeStyle=orthogonalEdgeStyle;rounded=0;orthogonalLoop=1;jettySize=auto;html=1;exitX=0;exitY=0;exitDx=0;exitDy=0;entryX=1;entryY=0.5;entryDx=0;entryDy=0;" parent="1" source="lDs5BPiXP0umJqBsJiqN-12" target="lDs5BPiXP0umJqBsJiqN-13" edge="1">
          <mxGeometry relative="1" as="geometry" />
        </mxCell>
        <mxCell id="ePJnPtknFx4bKDEtzAIc-23" style="edgeStyle=orthogonalEdgeStyle;rounded=0;orthogonalLoop=1;jettySize=auto;html=1;exitX=0.5;exitY=0;exitDx=0;exitDy=0;entryX=0.5;entryY=1;entryDx=0;entryDy=0;" edge="1" parent="1" source="lDs5BPiXP0umJqBsJiqN-12" target="ePJnPtknFx4bKDEtzAIc-22">
          <mxGeometry relative="1" as="geometry" />
        </mxCell>
        <mxCell id="lDs5BPiXP0umJqBsJiqN-12" value="Task&lt;div&gt;Progress&lt;/div&gt;" style="rounded=1;arcSize=10;whiteSpace=wrap;html=1;align=center;" parent="1" vertex="1">
          <mxGeometry x="180" y="1070" width="100" height="40" as="geometry" />
        </mxCell>
        <mxCell id="lDs5BPiXP0umJqBsJiqN-13" value="TaskID" style="ellipse;whiteSpace=wrap;html=1;align=center;" parent="1" vertex="1">
          <mxGeometry x="50" y="1040" width="100" height="40" as="geometry" />
        </mxCell>
        <mxCell id="lDs5BPiXP0umJqBsJiqN-14" value="UserID" style="ellipse;whiteSpace=wrap;html=1;align=center;" parent="1" vertex="1">
          <mxGeometry x="50" y="1100" width="100" height="40" as="geometry" />
        </mxCell>
        <mxCell id="ePJnPtknFx4bKDEtzAIc-2" style="edgeStyle=orthogonalEdgeStyle;rounded=0;orthogonalLoop=1;jettySize=auto;html=1;exitX=1;exitY=0.5;exitDx=0;exitDy=0;" edge="1" parent="1" source="ePJnPtknFx4bKDEtzAIc-1" target="HlBxM6AjfX2AsBV-wYqG-23">
          <mxGeometry relative="1" as="geometry" />
        </mxCell>
        <mxCell id="ePJnPtknFx4bKDEtzAIc-1" value="Register" style="shape=rhombus;perimeter=rhombusPerimeter;whiteSpace=wrap;html=1;align=center;" vertex="1" parent="1">
          <mxGeometry x="400" y="50" width="120" height="60" as="geometry" />
        </mxCell>
        <mxCell id="ePJnPtknFx4bKDEtzAIc-7" value="1" style="text;html=1;align=center;verticalAlign=middle;whiteSpace=wrap;rounded=0;" vertex="1" parent="1">
          <mxGeometry x="360" y="50" width="20" height="20" as="geometry" />
        </mxCell>
        <mxCell id="ePJnPtknFx4bKDEtzAIc-8" value="M" style="text;html=1;align=center;verticalAlign=middle;whiteSpace=wrap;rounded=0;" vertex="1" parent="1">
          <mxGeometry x="500" y="115" width="20" height="25" as="geometry" />
        </mxCell>
        <mxCell id="ePJnPtknFx4bKDEtzAIc-12" style="edgeStyle=orthogonalEdgeStyle;rounded=0;orthogonalLoop=1;jettySize=auto;html=1;exitX=0.5;exitY=1;exitDx=0;exitDy=0;entryX=0.25;entryY=0;entryDx=0;entryDy=0;" edge="1" parent="1" source="ePJnPtknFx4bKDEtzAIc-10" target="HlBxM6AjfX2AsBV-wYqG-43">
          <mxGeometry relative="1" as="geometry" />
        </mxCell>
        <mxCell id="ePJnPtknFx4bKDEtzAIc-10" value="suggest" style="shape=rhombus;perimeter=rhombusPerimeter;whiteSpace=wrap;html=1;align=center;" vertex="1" parent="1">
          <mxGeometry x="400" y="320" width="120" height="60" as="geometry" />
        </mxCell>
        <mxCell id="ePJnPtknFx4bKDEtzAIc-14" value="1" style="text;html=1;align=center;verticalAlign=middle;whiteSpace=wrap;rounded=0;" vertex="1" parent="1">
          <mxGeometry x="370" y="80" width="20" height="20" as="geometry" />
        </mxCell>
        <mxCell id="ePJnPtknFx4bKDEtzAIc-15" value="M" style="text;html=1;align=center;verticalAlign=middle;whiteSpace=wrap;rounded=0;" vertex="1" parent="1">
          <mxGeometry x="430" y="432.5" width="20" height="25" as="geometry" />
        </mxCell>
        <mxCell id="ePJnPtknFx4bKDEtzAIc-19" style="edgeStyle=orthogonalEdgeStyle;rounded=0;orthogonalLoop=1;jettySize=auto;html=1;exitX=0.5;exitY=1;exitDx=0;exitDy=0;entryX=1;entryY=0;entryDx=0;entryDy=0;" edge="1" parent="1" source="ePJnPtknFx4bKDEtzAIc-16" target="lDs5BPiXP0umJqBsJiqN-12">
          <mxGeometry relative="1" as="geometry">
            <Array as="points">
              <mxPoint x="210" y="791" />
              <mxPoint x="390" y="791" />
              <mxPoint x="390" y="1070" />
            </Array>
          </mxGeometry>
        </mxCell>
        <mxCell id="ePJnPtknFx4bKDEtzAIc-16" value="have" style="shape=rhombus;perimeter=rhombusPerimeter;whiteSpace=wrap;html=1;align=center;" vertex="1" parent="1">
          <mxGeometry x="150" y="452.5" width="120" height="60" as="geometry" />
        </mxCell>
        <mxCell id="ePJnPtknFx4bKDEtzAIc-20" value="1" style="text;html=1;align=center;verticalAlign=middle;whiteSpace=wrap;rounded=0;" vertex="1" parent="1">
          <mxGeometry x="390" y="125" width="20" height="20" as="geometry" />
        </mxCell>
        <mxCell id="ePJnPtknFx4bKDEtzAIc-21" value="M" style="text;html=1;align=center;verticalAlign=middle;whiteSpace=wrap;rounded=0;" vertex="1" parent="1">
          <mxGeometry x="280" y="1045" width="20" height="25" as="geometry" />
        </mxCell>
        <mxCell id="ePJnPtknFx4bKDEtzAIc-22" value="has" style="shape=rhombus;perimeter=rhombusPerimeter;whiteSpace=wrap;html=1;align=center;" vertex="1" parent="1">
          <mxGeometry x="180" y="985" width="120" height="60" as="geometry" />
        </mxCell>
        <mxCell id="ePJnPtknFx4bKDEtzAIc-24" style="edgeStyle=orthogonalEdgeStyle;rounded=0;orthogonalLoop=1;jettySize=auto;html=1;exitX=1;exitY=0.5;exitDx=0;exitDy=0;entryX=0.604;entryY=0.985;entryDx=0;entryDy=0;entryPerimeter=0;" edge="1" parent="1" source="ePJnPtknFx4bKDEtzAIc-22" target="HlBxM6AjfX2AsBV-wYqG-68">
          <mxGeometry relative="1" as="geometry" />
        </mxCell>
        <mxCell id="ePJnPtknFx4bKDEtzAIc-25" value="M" style="text;html=1;align=center;verticalAlign=middle;whiteSpace=wrap;rounded=0;" vertex="1" parent="1">
          <mxGeometry x="210" y="1040" width="20" height="25" as="geometry" />
        </mxCell>
        <mxCell id="ePJnPtknFx4bKDEtzAIc-26" value="N" style="text;html=1;align=center;verticalAlign=middle;whiteSpace=wrap;rounded=0;" vertex="1" parent="1">
          <mxGeometry x="300" y="915" width="30" height="20" as="geometry" />
        </mxCell>
        <mxCell id="ePJnPtknFx4bKDEtzAIc-31" style="edgeStyle=orthogonalEdgeStyle;rounded=0;orthogonalLoop=1;jettySize=auto;html=1;exitX=0.5;exitY=1;exitDx=0;exitDy=0;entryX=0;entryY=0.25;entryDx=0;entryDy=0;" edge="1" parent="1" source="ePJnPtknFx4bKDEtzAIc-27" target="lDs5BPiXP0umJqBsJiqN-2">
          <mxGeometry relative="1" as="geometry">
            <Array as="points">
              <mxPoint x="420" y="690" />
              <mxPoint x="420" y="1110" />
            </Array>
          </mxGeometry>
        </mxCell>
        <mxCell id="ePJnPtknFx4bKDEtzAIc-27" value="suggest" style="shape=rhombus;perimeter=rhombusPerimeter;whiteSpace=wrap;html=1;align=center;" vertex="1" parent="1">
          <mxGeometry x="330" y="630" width="120" height="60" as="geometry" />
        </mxCell>
        <mxCell id="ePJnPtknFx4bKDEtzAIc-32" value="1" style="text;html=1;align=center;verticalAlign=middle;whiteSpace=wrap;rounded=0;" vertex="1" parent="1">
          <mxGeometry x="390" y="600" width="20" height="20" as="geometry" />
        </mxCell>
        <mxCell id="ePJnPtknFx4bKDEtzAIc-33" value="M" style="text;html=1;align=center;verticalAlign=middle;whiteSpace=wrap;rounded=0;" vertex="1" parent="1">
          <mxGeometry x="590" y="1085" width="20" height="25" as="geometry" />
        </mxCell>
        <mxCell id="ePJnPtknFx4bKDEtzAIc-34" value="contains" style="shape=rhombus;perimeter=rhombusPerimeter;whiteSpace=wrap;html=1;align=center;" vertex="1" parent="1">
          <mxGeometry x="460" y="980" width="120" height="60" as="geometry" />
        </mxCell>
        <mxCell id="ePJnPtknFx4bKDEtzAIc-36" style="edgeStyle=orthogonalEdgeStyle;rounded=0;orthogonalLoop=1;jettySize=auto;html=1;exitX=0.5;exitY=0;exitDx=0;exitDy=0;entryX=0.18;entryY=1.008;entryDx=0;entryDy=0;entryPerimeter=0;" edge="1" parent="1" source="ePJnPtknFx4bKDEtzAIc-34" target="HlBxM6AjfX2AsBV-wYqG-56">
          <mxGeometry relative="1" as="geometry">
            <Array as="points">
              <mxPoint x="498" y="980" />
            </Array>
          </mxGeometry>
        </mxCell>
        <mxCell id="ePJnPtknFx4bKDEtzAIc-37" value="1" style="text;html=1;align=center;verticalAlign=middle;whiteSpace=wrap;rounded=0;" vertex="1" parent="1">
          <mxGeometry x="270" y="30" width="20" height="20" as="geometry" />
        </mxCell>
        <mxCell id="ePJnPtknFx4bKDEtzAIc-41" value="M" style="text;html=1;align=center;verticalAlign=middle;whiteSpace=wrap;rounded=0;" vertex="1" parent="1">
          <mxGeometry x="650" y="1075" width="20" height="25" as="geometry" />
        </mxCell>
        <mxCell id="ePJnPtknFx4bKDEtzAIc-42" value="N" style="text;html=1;align=center;verticalAlign=middle;whiteSpace=wrap;rounded=0;" vertex="1" parent="1">
          <mxGeometry x="490" y="855" width="30" height="20" as="geometry" />
        </mxCell>
        <mxCell id="ePJnPtknFx4bKDEtzAIc-44" style="edgeStyle=orthogonalEdgeStyle;rounded=0;orthogonalLoop=1;jettySize=auto;html=1;exitX=0.5;exitY=1;exitDx=0;exitDy=0;entryX=1;entryY=0.5;entryDx=0;entryDy=0;" edge="1" parent="1" source="ePJnPtknFx4bKDEtzAIc-43" target="HlBxM6AjfX2AsBV-wYqG-86">
          <mxGeometry relative="1" as="geometry" />
        </mxCell>
        <mxCell id="ePJnPtknFx4bKDEtzAIc-43" value="sets" style="shape=rhombus;perimeter=rhombusPerimeter;whiteSpace=wrap;html=1;align=center;" vertex="1" parent="1">
          <mxGeometry x="490" y="1480" width="120" height="60" as="geometry" />
        </mxCell>
        <mxCell id="ePJnPtknFx4bKDEtzAIc-46" value="1" style="text;html=1;align=center;verticalAlign=middle;whiteSpace=wrap;rounded=0;" vertex="1" parent="1">
          <mxGeometry x="450" y="1480" width="20" height="20" as="geometry" />
        </mxCell>
        <mxCell id="ePJnPtknFx4bKDEtzAIc-47" value="1" style="text;html=1;align=center;verticalAlign=middle;whiteSpace=wrap;rounded=0;" vertex="1" parent="1">
          <mxGeometry x="530" y="1560" width="20" height="20" as="geometry" />
        </mxCell>
        <mxCell id="ePJnPtknFx4bKDEtzAIc-50" style="edgeStyle=orthogonalEdgeStyle;rounded=0;orthogonalLoop=1;jettySize=auto;html=1;exitX=0.5;exitY=1;exitDx=0;exitDy=0;" edge="1" parent="1" source="ePJnPtknFx4bKDEtzAIc-48" target="HlBxM6AjfX2AsBV-wYqG-76">
          <mxGeometry relative="1" as="geometry" />
        </mxCell>
        <mxCell id="ePJnPtknFx4bKDEtzAIc-48" value="takes" style="shape=rhombus;perimeter=rhombusPerimeter;whiteSpace=wrap;html=1;align=center;" vertex="1" parent="1">
          <mxGeometry x="190" y="1180" width="120" height="60" as="geometry" />
        </mxCell>
        <mxCell id="ePJnPtknFx4bKDEtzAIc-53" value="M" style="text;html=1;align=center;verticalAlign=middle;whiteSpace=wrap;rounded=0;" vertex="1" parent="1">
          <mxGeometry x="290" y="1300" width="20" height="25" as="geometry" />
        </mxCell>
      </root>
    </mxGraphModel>
  </diagram>
</mxfile>
